<svg width="42" height="19" viewBox="0 0 42 19" fill="none" xmlns="http://www.w3.org/2000/svg">
<path d="M32.5184 1.01832L32.5184 1.01836C32.4939 1.04287 32.4939 1.08221 32.5183 1.10661L32.5184 1.10665L39.9957 8.58396L40.8492 9.43752H39.6421H0.562518C0.527739 9.43752 0.5 9.46526 0.5 9.50004C0.5 9.53481 0.527738 9.56255 0.562518 9.56255H39.6421H40.8493L39.9957 10.4161L32.5184 17.8934C32.4939 17.9179 32.4939 17.9572 32.5183 17.9816L32.5184 17.9817C32.5307 17.994 32.5459 18 32.5625 18C32.5791 18 32.5942 17.9941 32.6067 17.9817L32.5184 1.01832ZM32.5184 1.01832C32.5428 0.993917 32.5821 0.993855 32.6066 1.01836L41.0442 9.45587C41.0687 9.48038 41.0686 9.51975 41.0442 9.54415L32.6068 17.9816L32.5184 1.01832Z" fill="white" stroke="white"/>
</svg>
