<svg width="22" height="24" viewBox="0 0 22 24" fill="none" xmlns="http://www.w3.org/2000/svg">
<g opacity="0.2">
<path d="M14.6344 20.9495C14.1208 22.2228 12.8712 23.1242 11.4168 23.1242C9.96262 23.1242 8.71304 22.2228 8.19922 20.9495H14.6344Z" stroke="white"/>
<path d="M20.8976 16.4011L20.9004 16.4036C20.9355 16.4342 20.971 16.4646 21.0068 16.4946C21.2445 16.6943 21.4011 16.9547 21.466 17.2371C21.5076 17.4185 21.5121 17.6116 21.4736 17.8073L21.4736 17.8073L21.4706 17.822L21.4706 17.8222C21.4682 17.8334 21.4658 17.8446 21.4631 17.8557L21.4629 17.8566C21.4593 17.872 21.4554 17.8875 21.4512 17.9029C21.2959 18.4766 20.7052 18.8914 20.031 18.8914H20.0258H2.8082H2.80296C2.12876 18.8914 1.53812 18.4766 1.38275 17.9029C1.37862 17.8876 1.37476 17.8723 1.37117 17.8571L1.37094 17.8561C1.36828 17.8449 1.36577 17.8336 1.36341 17.8222L1.36336 17.822L1.36039 17.8073L0.869786 17.9037L1.36039 17.8073C1.32192 17.6116 1.32635 17.4185 1.36802 17.2371L1.36808 17.2368C1.42379 16.9937 1.54623 16.7697 1.72396 16.5902C1.75013 16.5638 1.77751 16.5383 1.80608 16.5139C3.52704 15.0584 4.50937 12.9425 4.50937 10.701V7.75064C4.50937 3.93554 7.60206 0.843018 11.417 0.843018C15.2319 0.843018 18.3246 3.93554 18.3246 7.75064V10.701C18.3246 11.9052 18.6082 13.0739 19.1382 14.1235C19.569 14.9768 20.1624 15.7508 20.8976 16.4011Z" stroke="white"/>
</g>
</svg>
