<svg width="27" height="29" viewBox="0 0 27 29" fill="none" xmlns="http://www.w3.org/2000/svg">
<path opacity="0.3" d="M15.8613 25.875C15.2897 27.4061 13.8111 28.5 12.0837 28.5C10.3565 28.5 8.87797 27.4061 8.30617 25.875H15.8613Z" stroke="white"/>
<path opacity="0.3" d="M23.633 22.3894L23.633 22.3892C23.757 21.7917 23.5466 21.1974 23.0801 20.8052C21.3326 19.3403 20.2771 17.2357 20.0848 14.9885C15.3575 14.7495 11.584 10.8285 11.584 6.04175C11.584 4.94086 11.7891 3.88935 12.1555 2.91713C12.1316 2.91688 12.1078 2.91675 12.084 2.91675C7.68885 2.91675 4.12575 6.47964 4.12575 10.875V14.2438C4.12575 16.7823 3.01334 19.1785 1.06417 20.827C0.59757 21.226 0.389299 21.861 0.558151 22.4857L23.633 22.3894ZM23.633 22.3894C23.4803 23.1268 22.7489 23.6668 21.9138 23.6668H2.24824C1.45222 23.6668 0.745472 23.1771 0.558201 22.4859L23.633 22.3894Z" stroke="white"/>
<path d="M26.5833 6.04174C26.5833 9.37845 23.8785 12.0833 20.5415 12.0833C17.2048 12.0833 14.5 9.37845 14.5 6.04174C14.5 2.70503 17.2048 0 20.5415 0C23.8785 0 26.5833 2.70503 26.5833 6.04174Z" fill="#FF5753"/>
</svg>
