<svg width="20" height="20" viewBox="0 0 28 23" fill="none" xmlns="http://www.w3.org/2000/svg">
  <linearGradient id="linear-gradient" gradientTransform="rotate(65)">
    <stop offset="0%" stop-color="#FDD226"/>
    <stop offset="100%" stop-color="#FF5753"/>
  </linearGradient>
  <path fill-rule="evenodd" clip-rule="evenodd" d="M4 0C1.79086 0 0 1.79086 0 4V14.9538C0 17.163 1.79086 18.9538 4 18.9538H21.4567C21.916 18.9538 22.3612 19.1119 22.7177 19.4015L26.3695 22.3678C27.023 22.8987 28 22.4336 28 21.5917V4C28 1.79086 26.2091 0 24 0H4ZM9.61537 8.61537C9.61537 8.06308 9.16765 7.61537 8.61537 7.61537C8.06308 7.61537 7.61537 8.06308 7.61537 8.61537C7.61537 11.7434 10.6936 13.9231 14 13.9231C17.3063 13.9231 20.3846 11.7434 20.3846 8.61537C20.3846 8.06308 19.9369 7.61537 19.3846 7.61537C18.8323 7.61537 18.3846 8.06308 18.3846 8.61537C18.3846 10.2455 16.6413 11.9231 14 11.9231C11.3587 11.9231 9.61537 10.2455 9.61537 8.61537Z" fill="white"/>
</svg>
