<svg width="20" height="20" viewBox="0 0 29 22" fill="none" xmlns="http://www.w3.org/2000/svg">
  <linearGradient id="linear-gradient" gradientTransform="rotate(65)">
    <stop offset="0%" stop-color="#FDD226"/>
    <stop offset="100%" stop-color="#FF5753"/>
  </linearGradient>
  <path d="M29 8.99808V17.544C29 20.005 27.248 22 25.0867 22H3.91329C1.75202 22 0 20.005 0 17.544V8.99808C0 8.57011 0.304726 8.22313 0.680573 8.22313H28.3194C28.6953 8.22313 29 8.57011 29 8.99808ZM21.7594 14.4227H23.5743C24.2321 14.4227 24.7653 13.8156 24.7653 13.0666C24.7653 12.3176 24.2321 11.7104 23.5743 11.7104H21.7594C21.1017 11.7104 20.5684 12.3176 20.5684 13.0666C20.5684 13.8156 21.1017 14.4227 21.7594 14.4227Z" fill="white"/>
  <path d="M0 4.73578V4.45596C0 1.99498 1.75202 0 3.91329 0H25.0867C27.248 0 29 1.99498 29 4.45596V4.73578C29 5.16375 28.6953 5.51073 28.3194 5.51073H0.680573C0.304726 5.51073 0 5.16375 0 4.73578Z" fill="white"/>
</svg>
