<svg width="20" height="20" viewBox="0 0 20 20" fill="none" xmlns="http://www.w3.org/2000/svg">
<path d="M16.5836 0H3.4164C1.53124 0 0 1.53124 0 3.41639V16.5836C0 18.4688 1.53124 20 3.4164 20H10.632V12.3221H8.04623V9.33189H10.632V7.1217C10.632 4.5576 12.1993 3.16359 14.4818 3.16359C15.5796 3.16359 16.5186 3.24305 16.7931 3.27916V5.95883H15.2113C13.9689 5.95883 13.7306 6.5511 13.7306 7.41784V9.33189H16.6919L16.3091 12.3221H13.7234V20H16.5836C18.4688 20 20 18.4688 20 16.5836V3.41639C20 1.53124 18.4688 0 16.5836 0Z" fill="white"/>
</svg>
