<svg width="18" height="20" viewBox="0 0 18 20" fill="none" xmlns="http://www.w3.org/2000/svg">
<path opacity="0.2" d="M16.3645 0H1.63639C0.73404 0 0 0.747593 0 1.66661V3.50098C0 4.20096 0.267453 4.8591 0.753731 5.35331L6.20347 10.9C6.42058 11.121 6.54575 11.4286 6.54575 11.7419V19.2857C6.54575 19.5647 6.70482 19.8181 6.95446 19.9343C7.04795 19.9791 7.14795 20 7.24709 20C7.4118 20 7.57447 19.9409 7.7034 19.8275L10.3228 17.541C10.8942 17.0438 11.2214 16.318 11.2214 15.5525V11.7618C11.2214 11.441 11.3513 11.1276 11.5786 10.9047L17.2146 5.36673C17.7139 4.87619 18 4.18858 18 3.48197V1.66661C18.001 0.747593 17.267 0 16.3645 0V0Z" fill="white"/>
</svg>
