<svg width="24" height="25" viewBox="0 0 24 25" fill="none" xmlns="http://www.w3.org/2000/svg">
<path d="M23.5212 23.3012L16.4207 16.1812C17.8955 14.5392 18.802 12.3743 18.802 9.99581C18.8019 4.88853 14.6581 0.733337 9.56468 0.733337C4.47127 0.733337 0.327393 4.88853 0.327393 9.99585C0.327393 15.1032 4.47127 19.2584 9.56468 19.2584C11.9367 19.2584 14.0957 18.3495 15.7333 16.8706L22.8338 23.9905C22.9287 24.0857 23.0531 24.1333 23.1775 24.1333C23.3019 24.1333 23.4263 24.0857 23.5213 23.9905C23.7112 23.8001 23.7112 23.4916 23.5212 23.3012ZM9.56468 18.2833C5.00777 18.2833 1.29977 14.5657 1.29977 9.99585C1.29977 5.42604 5.00777 1.70832 9.56468 1.70832C14.1216 1.70832 17.8296 5.426 17.8296 9.99585C17.8296 14.5657 14.1216 18.2833 9.56468 18.2833Z" fill="white"/>
</svg>
