<svg width="23" height="24" viewBox="0 0 23 24" fill="none" xmlns="http://www.w3.org/2000/svg">
<path fill-rule="evenodd" clip-rule="evenodd" d="M11.7614 14.2667V9.86667H22.7386C22.8693 10.6667 23 11.3333 23 12.2667C23 19.0667 18.5568 24 11.7614 24C5.22727 24 0 18.6667 0 12C0 5.33333 5.22727 0 11.7614 0C14.8977 0 17.642 1.2 19.6023 3.06667L16.2045 6.4C15.4205 5.6 13.983 4.66667 11.7614 4.66667C7.84091 4.66667 4.70455 8 4.70455 12C4.70455 16 7.84091 19.3333 11.7614 19.3333C16.2045 19.3333 17.9034 16.1333 18.1648 14.2667H11.7614Z" fill="white"/>
</svg>
