<svg width="20" height="20" viewBox="0 0 27 27" fill="none" xmlns="http://www.w3.org/2000/svg">
  <linearGradient id="linear-gradient" gradientTransform="rotate(65)">
    <stop offset="0%" stop-color="#FDD226"/>
    <stop offset="100%" stop-color="#FF5753"/>
  </linearGradient>
  <path opacity="0.9" d="M26.2727 11.7458C26.2727 11.7405 26.2727 11.7405 26.2727 11.7458L15.2539 0.729159C14.7888 0.258904 14.1599 0 13.4993 0C12.8387 0 12.2098 0.258904 11.7395 0.729159L0.731284 11.7352C0.725999 11.7405 0.725999 11.7405 0.720714 11.7458C-0.241117 12.718 -0.241117 14.2873 0.725999 15.2542C1.16992 15.698 1.75125 15.9517 2.37485 15.9781C2.40128 15.9781 2.4277 15.9834 2.45413 15.9834H2.89276V24.0886C2.89276 25.6949 4.19811 27 5.80468 27H10.1171C10.5557 27 10.9098 26.646 10.9098 26.2074V19.8564C10.9098 19.1219 11.507 18.5301 12.2363 18.5301H14.7783C15.5128 18.5301 16.1047 19.1272 16.1047 19.8564V26.2074C16.1047 26.646 16.4588 27 16.8975 27H21.2098C22.8164 27 24.1218 25.6949 24.1218 24.0886V15.9834H24.5287C25.1946 15.9834 25.8182 15.7245 26.2885 15.2542C27.2398 14.2873 27.2398 12.7127 26.2727 11.7458Z" fill="white"/>
</svg>
