<svg width="25" height="8" viewBox="0 0 25 8" fill="none" xmlns="http://www.w3.org/2000/svg">
<path d="M24.3536 4.52831C24.5488 4.33305 24.5488 4.01647 24.3536 3.82121L21.1716 0.639225C20.9763 0.443963 20.6597 0.443963 20.4645 0.639225C20.2692 0.834487 20.2692 1.15107 20.4645 1.34633L23.2929 4.17476L20.4645 7.00319C20.2692 7.19845 20.2692 7.51503 20.4645 7.71029C20.6597 7.90556 20.9763 7.90556 21.1716 7.71029L24.3536 4.52831ZM1 3.67476C0.723858 3.67476 0.5 3.89862 0.5 4.17476C0.5 4.4509 0.723858 4.67476 1 4.67476V3.67476ZM24 3.67476H1V4.67476H24V3.67476Z" fill="url(#paint0_linear)"/>
<defs>
<linearGradient id="paint0_linear" x1="1" y1="3.99999" x2="23.5" y2="4" gradientUnits="userSpaceOnUse">
<stop stop-color="#FF5753"/>
<stop offset="1" stop-color="#FF5753" stop-opacity="0.8"/>
</linearGradient>
</defs>
</svg>
