<svg width="25" height="8" viewBox="0 0 25 8" fill="none" xmlns="http://www.w3.org/2000/svg">
<path d="M24 4.67476C24.2761 4.67476 24.5 4.4509 24.5 4.17476C24.5 3.89862 24.2761 3.67476 24 3.67476V4.67476ZM0.646447 3.82121C0.451184 4.01647 0.451184 4.33305 0.646447 4.52831L3.82843 7.71029C4.02369 7.90556 4.34027 7.90556 4.53553 7.71029C4.7308 7.51503 4.7308 7.19845 4.53553 7.00319L1.70711 4.17476L4.53553 1.34633C4.7308 1.15107 4.7308 0.834487 4.53553 0.639225C4.34027 0.443963 4.02369 0.443963 3.82843 0.639225L0.646447 3.82121ZM24 3.67476H1V4.67476H24V3.67476Z" fill="url(#paint0_linear)"/>
<defs>
<linearGradient id="paint0_linear" x1="2" y1="5" x2="23.9977" y2="4.73082" gradientUnits="userSpaceOnUse">
<stop stop-color="#1767AC"/>
<stop offset="1" stop-color="#8CF4EA"/>
</linearGradient>
</defs>
</svg>
