<svg width="20" height="20" viewBox="0 0 20 20" fill="none" xmlns="http://www.w3.org/2000/svg">
<path d="M10 1.80162C12.6721 1.80162 12.9757 1.82186 14.0486 1.86235C15.0202 1.90283 15.5466 2.06478 15.9109 2.20648C16.3765 2.38866 16.7004 2.61134 17.0648 2.95547C17.4089 3.2996 17.6316 3.64372 17.8138 4.10931C17.9555 4.45344 18.1174 5 18.1579 5.97166C18.1984 7.02429 18.2186 7.34818 18.2186 10.0202C18.2186 12.6923 18.1984 12.996 18.1579 14.0688C18.1174 15.0405 17.9555 15.5668 17.8138 15.9312C17.6316 16.3968 17.4089 16.7206 17.0648 17.085C16.7206 17.4291 16.3765 17.6518 15.9109 17.834C15.5668 17.9757 15.0202 18.1377 14.0486 18.1781C12.996 18.2186 12.6721 18.2389 10 18.2389C7.32794 18.2389 7.02429 18.2186 5.95142 18.1781C4.97976 18.1377 4.45344 17.9757 4.08907 17.834C3.62348 17.6518 3.2996 17.4291 2.93522 17.085C2.59109 16.7409 2.36842 16.3968 2.18623 15.9312C2.04453 15.587 1.88259 15.0405 1.84211 14.0688C1.80162 13.0162 1.78138 12.6923 1.78138 10.0202C1.78138 7.34818 1.80162 7.04453 1.84211 5.97166C1.88259 5 2.04453 4.47368 2.18623 4.10931C2.36842 3.64372 2.59109 3.31984 2.93522 2.95547C3.27935 2.61134 3.62348 2.38866 4.08907 2.20648C4.4332 2.06478 4.97976 1.90283 5.95142 1.86235C7.02429 1.82186 7.32794 1.80162 10 1.80162ZM10 0C7.28745 0 6.94332 0.0202428 5.87045 0.0607286C4.79757 0.101214 4.08907 0.283401 3.4413 0.526316C2.79352 0.789474 2.22672 1.11336 1.68016 1.68016C1.1336 2.22672 0.789474 2.79352 0.526316 3.4413C0.283401 4.06883 0.101214 4.79757 0.0607286 5.87044C0.0202428 6.94332 0 7.26721 0 10C0 12.7126 0.0202428 13.0567 0.0607286 14.1296C0.101214 15.2024 0.283401 15.9109 0.526316 16.5587C0.789474 17.2065 1.11336 17.7733 1.68016 18.3198C2.22672 18.8664 2.79352 19.2105 3.4413 19.4737C4.06883 19.7166 4.79757 19.8988 5.87045 19.9393C6.94332 19.9798 7.26721 20 10 20C12.7328 20 13.0567 19.9798 14.1296 19.9393C15.2024 19.8988 15.9109 19.7166 16.5587 19.4737C17.2065 19.2105 17.7733 18.8866 18.3198 18.3198C18.8664 17.7733 19.2105 17.2065 19.4737 16.5587C19.7166 15.9312 19.8988 15.2024 19.9393 14.1296C19.9798 13.0567 20 12.7328 20 10C20 7.26721 19.9798 6.94332 19.9393 5.87044C19.8988 4.79757 19.7166 4.08907 19.4737 3.4413C19.2105 2.79352 18.8866 2.22672 18.3198 1.68016C17.7733 1.1336 17.2065 0.789474 16.5587 0.526316C15.9312 0.283401 15.2024 0.101214 14.1296 0.0607286C13.0567 0.0202428 12.7126 0 10 0Z" fill="white"/>
<path d="M10 4.85831C7.166 4.85831 4.85831 7.166 4.85831 10C4.85831 12.834 7.166 15.1417 10 15.1417C12.834 15.1417 15.1417 12.834 15.1417 10C15.1417 7.166 12.834 4.85831 10 4.85831ZM10 13.3401C8.1579 13.3401 6.65993 11.8421 6.65993 10C6.65993 8.1579 8.1579 6.65993 10 6.65993C11.8421 6.65993 13.3401 8.1579 13.3401 10C13.3401 11.8421 11.8421 13.3401 10 13.3401Z" fill="white"/>
<path d="M15.3441 5.85018C16.0038 5.85018 16.5385 5.31546 16.5385 4.65585C16.5385 3.99624 16.0038 3.46152 15.3441 3.46152C14.6845 3.46152 14.1498 3.99624 14.1498 4.65585C14.1498 5.31546 14.6845 5.85018 15.3441 5.85018Z" fill="white"/>
</svg>
