<svg width="20" height="20" viewBox="0 0 20 20" fill="none" xmlns="http://www.w3.org/2000/svg">
<path d="M10.689 9.17215V9.14407C10.6821 9.15109 10.6751 9.16513 10.6682 9.17215H10.689Z" fill="white"/>
<path d="M16.5836 0H3.4164C1.53124 0 0 1.53124 0 3.4164V16.5836C0 18.4688 1.53124 20 3.4164 20H16.5836C18.4688 20 20 18.4688 20 16.5836V3.4164C20 1.53124 18.4688 0 16.5836 0ZM6.42109 16.2369H3.67642V7.98122H6.42109V16.2369ZM5.09209 6.58722C4.31203 6.58722 3.67642 5.95161 3.67642 5.17154C3.67642 4.39148 4.31203 3.75587 5.09209 3.75587C5.87216 3.76309 6.50054 4.39148 6.50054 5.17154C6.50054 5.95883 5.87216 6.58722 5.09209 6.58722ZM16.3236 16.2369H13.5789V11.8165C13.5789 10.7042 13.1817 9.94583 12.1849 9.94583C11.4265 9.94583 10.9715 10.4586 10.7765 10.9498C10.7042 11.1231 10.6826 11.3687 10.6826 11.6215V16.2369H7.93788C7.93788 16.2369 7.974 8.75406 7.93788 7.974H10.6826V9.1441C11.0509 8.58072 11.701 7.77898 13.16 7.77898C14.9657 7.77898 16.3236 8.9563 16.3236 11.4987V16.2369Z" fill="white"/>
</svg>
