<svg width="150" height="20" viewBox="0 0 150 20" fill="none" xmlns="http://www.w3.org/2000/svg">
<path d="M0 0H4.01997V19.4693H0V0Z" fill="white"/>
<path d="M12.8481 7.77719H8.03994V11.6921H12.8481V19.4693H16.8681V0H12.8481V7.77719Z" fill="white"/>
<path d="M24.8818 9.74777C24.8818 6.51603 27.5881 3.91487 30.8986 3.91487C31.1614 3.91487 31.4241 3.94115 31.6868 3.96742L33.8151 0.446663C32.8955 0.183922 31.9233 0.0262756 30.9249 0.0262756C25.381 0.0262756 20.8881 4.38781 20.8881 9.74777C20.8881 12.5328 22.0704 15.0289 23.9885 16.7893L26.1167 13.2685C25.3285 12.2438 24.8818 11.0352 24.8818 9.74777Z" fill="white"/>
<path d="M37.5986 2.49606C39.648 4.28271 40.9354 6.85759 40.9354 9.74777C40.9354 15.134 36.4425 19.4693 30.8986 19.4693C29.7951 19.4693 28.7441 19.2853 27.7457 18.97L29.8476 15.4756C30.1892 15.5281 30.557 15.5544 30.9249 15.5544C34.2617 15.5544 36.9417 12.927 36.9417 9.7215C36.9417 8.32896 36.4425 7.01524 35.5492 5.96427L37.5986 2.49606Z" fill="white"/>
<path d="M53.9675 0C57.2255 0 60.0894 1.47136 61.9286 3.7835L59.0647 6.59485C58.0138 4.96584 56.122 3.86232 53.9675 3.86232C50.657 3.86232 47.9507 6.48975 47.9507 9.69522C47.9507 12.9007 50.6307 15.5281 53.9675 15.5281C56.2008 15.5281 58.1189 14.372 59.1698 12.6379L62.0337 15.5018C60.1945 17.8928 57.2781 19.443 53.9675 19.443C48.4237 19.443 43.9307 15.0815 43.9307 9.72149C43.9307 4.36153 48.4237 0 53.9675 0Z" fill="white"/>
<path d="M66.0011 7.77719H76.0379V11.6921H66.0011V7.77719Z" fill="white"/>
<path d="M66.0011 15.5807H80.8461V19.4693H66.0011V15.5807Z" fill="white"/>
<path d="M66.0011 0H80.8461V3.8886H66.0011V0Z" fill="white"/>
<path d="M88.8858 0V15.5807H99.5269V19.4693H84.8659V0H88.8858Z" fill="white"/>
<path d="M105.413 9.74777C105.413 6.51603 108.04 3.91487 111.246 3.91487C111.486 3.91487 111.705 3.93692 111.942 3.96081L112.008 3.96742L114.057 0.446663C113.164 0.183922 112.218 0.0262756 111.246 0.0262756C105.859 0.0262756 101.524 4.38781 101.524 9.74777C101.524 12.5328 102.68 15.0289 104.546 16.7893L106.595 13.2685C105.833 12.2438 105.413 11.0352 105.413 9.74777Z" fill="white"/>
<path d="M117.762 2.49604C119.732 4.2827 120.994 6.85758 120.994 9.74775C120.994 15.134 116.632 19.4692 111.272 19.4692C110.195 19.4692 109.17 19.2853 108.198 18.97L110.221 15.4755C110.563 15.5281 110.904 15.5544 111.272 15.5544C114.504 15.5544 117.105 12.9269 117.105 9.72148C117.105 8.32894 116.606 7.01522 115.739 5.96425L117.762 2.49604Z" fill="white"/>
<path d="M134.025 3.8886H140.463V0H123.594V3.8886H130.032V19.4693H134.025V3.8886Z" fill="white"/>
<path d="M149.212 0L148.371 2.54861L147.504 0H146.742V3.15292H147.215V0.446663L148.161 3.15292H148.607L149.527 0.446663V3.15292H150V0H149.212Z" fill="white"/>
<path d="M144.903 3.15292H145.376V0.446663H146.295V0H143.957V0.446663H144.903V3.15292Z" fill="white"/>
</svg>
