<svg width="24" height="23" viewBox="0 0 24 23" fill="none" xmlns="http://www.w3.org/2000/svg">
<path d="M22.5576 11.9126H7.85693C7.4372 11.9126 7.09656 11.572 7.09656 11.1522C7.09656 10.7325 7.4372 10.3919 7.85693 10.3919H22.5576C22.9774 10.3919 23.318 10.7325 23.318 11.1522C23.318 11.572 22.9774 11.9126 22.5576 11.9126Z" fill="white"/>
<path d="M11.9127 15.9679C11.718 15.9679 11.5235 15.894 11.3753 15.7449L7.32006 11.6897C7.02303 11.3925 7.02303 10.9109 7.32006 10.6139L11.3753 6.55861C11.6723 6.26159 12.1539 6.26159 12.4511 6.55861C12.7481 6.85563 12.7481 7.33718 12.4511 7.6342L8.93306 11.1522L12.4511 14.6703C12.7481 14.9673 12.7481 15.4488 12.4511 15.7459C12.302 15.894 12.1073 15.9679 11.9127 15.9679Z" fill="white"/>
<path d="M11.1522 22.3044C5.00332 22.3044 0 17.3011 0 11.1522C0 5.00332 5.00332 0 11.1522 0C15.7661 0 19.8397 2.77585 21.5318 7.07263C21.6859 7.46284 21.4932 7.90392 21.103 8.05893C20.7126 8.21115 20.2715 8.02143 20.1165 7.62917C18.6555 3.91845 15.1366 1.52075 11.1522 1.52075C5.84166 1.52075 1.52075 5.84185 1.52075 11.1522C1.52075 16.4626 5.84166 20.7837 11.1522 20.7837C15.1366 20.7837 18.6555 18.386 20.1165 14.6764C20.2706 14.2839 20.7117 14.0944 21.103 14.2464C21.4932 14.4005 21.6859 14.8425 21.5318 15.2329C19.8397 19.5286 15.7661 22.3044 11.1522 22.3044Z" fill="white"/>
</svg>
