<svg width="28" height="35" viewBox="0 0 28 35" fill="none" xmlns="http://www.w3.org/2000/svg">
<path d="M5.09091 13.0926V9.39815C5.09091 4.92593 9.1 1.2963 14 1.2963C18.9 1.2963 22.9091 4.92593 22.9091 9.39815V12.963H4.58182C2.03636 12.963 0 15.037 0 17.6296V30.2685C0 32.8611 2.03636 34.9352 4.58182 34.9352H23.3545C25.9 34.9352 27.9364 32.8611 27.9364 30.2685V17.6296C27.9364 15.2963 26.2818 13.4167 24.1182 13.0278V9.39815C24.1818 4.21296 19.6 0 14 0C8.4 0 3.81818 4.21296 3.81818 9.39815V13.287L5.09091 13.0926ZM26.7273 30.3333C26.7273 32.213 25.2636 33.7037 23.4182 33.7037H4.58182C2.73636 33.7037 1.27273 32.213 1.27273 30.3333V17.6296C1.27273 15.75 2.73636 14.2593 4.58182 14.2593H23.3545C25.2 14.2593 26.6636 15.75 26.6636 17.6296V30.3333H26.7273Z" fill="white" fill-opacity="0.2"/>
<path d="M14 18.1481C12.6 18.1481 11.4545 19.3148 11.4545 20.7407V24.6296C11.4545 26.0556 12.6 27.2222 14 27.2222C15.4 27.2222 16.5454 26.0556 16.5454 24.6296V20.7407C16.5454 19.3148 15.4 18.1481 14 18.1481ZM15.2727 24.6296C15.2727 25.3426 14.7 25.9259 14 25.9259C13.3 25.9259 12.7273 25.3426 12.7273 24.6296V20.7407C12.7273 20.0278 13.3 19.4444 14 19.4444C14.7 19.4444 15.2727 20.0278 15.2727 20.7407V24.6296Z" fill="white" fill-opacity="0.2"/>
</svg>
