<svg width="15" height="15" viewBox="0 0 15 15" fill="none" xmlns="http://www.w3.org/2000/svg">
<path d="M7.35676 0.674438C3.51163 0.674438 0.383789 3.80397 0.383789 7.65118C0.383789 11.4984 3.51163 14.6279 7.35676 14.6279C11.2019 14.6279 14.3297 11.4978 14.3297 7.65118C14.3297 3.80452 11.2019 0.674438 7.35676 0.674438ZM7.35676 13.5471C4.10793 13.5471 1.46403 10.9023 1.46403 7.65118C1.46403 4.40005 4.10793 1.75526 7.35676 1.75526C10.6056 1.75526 13.2495 4.40005 13.2495 7.65118C13.2495 10.9023 10.6061 13.5471 7.35676 13.5471Z" fill="white"/>
<path d="M10.0573 7.06213H7.89684V4.90049C7.89684 4.60218 7.6554 4.36006 7.3567 4.36006C7.05801 4.36006 6.81657 4.60218 6.81657 4.90049V7.06213H4.6561C4.35741 7.06213 4.11597 7.30425 4.11597 7.60256C4.11597 7.90087 4.35741 8.14298 4.6561 8.14298H6.81657V10.3046C6.81657 10.6029 7.05801 10.8451 7.3567 10.8451C7.6554 10.8451 7.89684 10.6029 7.89684 10.3046V8.14298H10.0573C10.356 8.14298 10.5974 7.90087 10.5974 7.60256C10.5974 7.30425 10.356 7.06213 10.0573 7.06213Z" fill="white"/>
</svg>
