<svg width="20" height="20" viewBox="0 0 20 20" fill="none" xmlns="http://www.w3.org/2000/svg">
<path d="M0.454536 12.2727C0.203287 12.2727 -2.47955e-05 12.476 -2.47955e-05 12.7273C-2.47955e-05 12.9785 0.203287 13.1818 0.454536 13.1818H1.81817V15H0.454536C0.203287 15 -2.47955e-05 15.2033 -2.47955e-05 15.4545C-2.47955e-05 15.7058 0.203287 15.9091 0.454536 15.9091H1.81817V16.3636C1.81817 17.3664 2.63358 18.1818 3.63637 18.1818H4.09093V19.5455C4.09093 19.7967 4.29419 20 4.54544 20C4.79669 20 5 19.7967 5 19.5454V18.1818H6.8182V19.5454C6.8182 19.7967 7.02151 20 7.27272 20C7.52392 20 7.72728 19.7967 7.72728 19.5454V18.1818H9.54547V19.5454C9.54547 19.7967 9.74878 20 9.99999 20C10.2512 20 10.4545 19.7967 10.4545 19.5454V18.1818H12.2727V19.5454C12.2727 19.7967 12.4761 20 12.7273 20C12.9785 20 13.1818 19.7967 13.1818 19.5454V18.1818H15V19.5454C15 19.7967 15.2033 20 15.4545 20C15.7057 20 15.9091 19.7967 15.9091 19.5454V18.1818H16.3637C17.3664 18.1818 18.1818 17.3664 18.1818 16.3636V15.9091H19.5455C19.7967 15.9091 20 15.7058 20 15.4545C20 15.2033 19.7967 14.9999 19.5454 14.9999H18.1818V13.1818H19.5454C19.7967 13.1818 20 12.9785 20 12.7272C20 12.476 19.7967 12.2727 19.5454 12.2727H18.1818V10.4545H19.5454C19.7967 10.4545 20 10.2512 20 9.99996C20 9.74871 19.7967 9.5454 19.5454 9.5454H18.1818V7.72725H19.5454C19.7967 7.72725 20 7.52394 20 7.27269C20 7.02144 19.7967 6.81813 19.5454 6.81813H18.1818V4.99997H19.5454C19.7967 4.99997 20 4.79666 20 4.54541C20 4.29416 19.7967 4.09085 19.5454 4.09085H18.1818V3.63634C18.1818 2.6336 17.3664 1.81814 16.3636 1.81814H15.9091V0.454506C15.9091 0.203257 15.7058 -5.53131e-05 15.4545 -5.53131e-05C15.2033 -5.53131e-05 15 0.203257 15 0.454506V1.81814H13.1818V0.454506C13.1818 0.203257 12.9785 -5.53131e-05 12.7273 -5.53131e-05C12.476 -5.53131e-05 12.2727 0.203257 12.2727 0.454506V1.81814H10.4545V0.454506C10.4545 0.203257 10.2512 -5.53131e-05 9.99999 -5.53131e-05C9.74874 -5.53131e-05 9.54543 0.203257 9.54543 0.454506V1.81814H7.72728V0.454506C7.72728 0.203257 7.52397 -5.53131e-05 7.27272 -5.53131e-05C7.02147 -5.53131e-05 6.81816 0.203257 6.81816 0.454506V1.81814H5V0.454506C5 0.203257 4.79669 -5.53131e-05 4.54544 -5.53131e-05C4.29419 -5.53131e-05 4.09088 0.203257 4.09088 0.454506V1.81814H3.63637C2.63363 1.81814 1.81817 2.63355 1.81817 3.63634V4.0909H0.454536C0.203287 4.0909 -2.47955e-05 4.29421 -2.47955e-05 4.54546C-2.47955e-05 4.79671 0.203287 5.00002 0.454536 5.00002H1.81817V6.81821H0.454536C0.203287 6.81821 -2.47955e-05 7.02152 -2.47955e-05 7.27277C-2.47955e-05 7.52402 0.203287 7.72725 0.454536 7.72725H1.81817V9.54544H0.454536C0.203287 9.54544 -2.47955e-05 9.74875 -2.47955e-05 10C-2.47955e-05 10.2513 0.203287 10.4545 0.454536 10.4545H1.81817V12.2727H0.454536ZM3.63637 4.0909C3.63637 3.83965 3.83968 3.63634 4.09093 3.63634H15.9091C16.1603 3.63634 16.3637 3.83965 16.3637 4.0909V15.9091C16.3637 16.1603 16.1603 16.3636 15.9091 16.3636H4.09093C3.83968 16.3636 3.63637 16.1603 3.63637 15.9091V4.0909Z" fill="white"/>
<path d="M4.5455 15.4546H15.4546V4.5455H4.5455V15.4546Z" fill="white"/>
</svg>
