<svg width="20" height="20" viewBox="0 0 27 27" fill="none" xmlns="http://www.w3.org/2000/svg">
  <linearGradient id="linear-gradient" gradientTransform="rotate(65)">
    <stop offset="0%" stop-color="#FDD226"/>
    <stop offset="100%" stop-color="#FF5753"/>
  </linearGradient>
  <path d="M0.613625 16.5682C0.274437 16.5682 -3.24249e-05 16.8426 -3.24249e-05 17.1818C-3.24249e-05 17.521 0.274437 17.7954 0.613625 17.7954H2.45453V20.25H0.613625C0.274437 20.25 -3.24249e-05 20.5245 -3.24249e-05 20.8636C-3.24249e-05 21.2028 0.274437 21.4772 0.613625 21.4772H2.45453V22.0909C2.45453 23.4446 3.55534 24.5455 4.9091 24.5455H5.52275V26.3864C5.52275 26.7255 5.79716 27 6.13635 27C6.47554 27 6.75001 26.7255 6.75001 26.3863V24.5454H9.20457V26.3863C9.20457 26.7255 9.47904 27 9.81817 27C10.1573 27 10.4318 26.7255 10.4318 26.3863V24.5454H12.8864V26.3863C12.8864 26.7255 13.1609 27 13.5 27C13.8391 27 14.1136 26.7255 14.1136 26.3863V24.5454H16.5682V26.3863C16.5682 26.7255 16.8427 27 17.1818 27C17.5209 27 17.7955 26.7255 17.7955 26.3863V24.5454H20.25V26.3863C20.25 26.7255 20.5245 27 20.8636 27C21.2027 27 21.4773 26.7255 21.4773 26.3863V24.5454H22.0909C23.4446 24.5454 24.5455 23.4446 24.5455 22.0908V21.4772H26.3864C26.7255 21.4772 27 21.2028 27 20.8636C27 20.5244 26.7255 20.2499 26.3863 20.2499H24.5454V17.7954H26.3863C26.7255 17.7954 27 17.521 27 17.1818C27 16.8426 26.7255 16.5681 26.3863 16.5681H24.5454V14.1136H26.3863C26.7255 14.1136 27 13.8391 27 13.5C27 13.1608 26.7255 12.8863 26.3863 12.8863H24.5454V10.4318H26.3863C26.7255 10.4318 27 10.1573 27 9.81814C27 9.47895 26.7255 9.20448 26.3863 9.20448H24.5454V6.74998H26.3863C26.7255 6.74998 27 6.47551 27 6.13632C27 5.79713 26.7255 5.52266 26.3863 5.52266H24.5454V4.90907C24.5454 3.55536 23.4446 2.4545 22.0909 2.4545H21.4773V0.613594C21.4773 0.274406 21.2028 -6.29425e-05 20.8636 -6.29425e-05C20.5244 -6.29425e-05 20.25 0.274406 20.25 0.613594V2.4545H17.7955V0.613594C17.7955 0.274406 17.521 -6.29425e-05 17.1818 -6.29425e-05C16.8426 -6.29425e-05 16.5681 0.274406 16.5681 0.613594V2.4545H14.1136V0.613594C14.1136 0.274406 13.8392 -6.29425e-05 13.5 -6.29425e-05C13.1608 -6.29425e-05 12.8863 0.274406 12.8863 0.613594V2.4545H10.4318V0.613594C10.4318 0.274406 10.1574 -6.29425e-05 9.81817 -6.29425e-05C9.47898 -6.29425e-05 9.20451 0.274406 9.20451 0.613594V2.4545H6.75001V0.613594C6.75001 0.274406 6.47554 -6.29425e-05 6.13635 -6.29425e-05C5.79716 -6.29425e-05 5.52269 0.274406 5.52269 0.613594V2.4545H4.9091C3.5554 2.4545 2.45453 3.55531 2.45453 4.90907V5.52272H0.613625C0.274437 5.52272 -3.24249e-05 5.79719 -3.24249e-05 6.13638C-3.24249e-05 6.47556 0.274437 6.75003 0.613625 6.75003H2.45453V9.2046H0.613625C0.274437 9.2046 -3.24249e-05 9.47906 -3.24249e-05 9.81825C-3.24249e-05 10.1574 0.274437 10.4318 0.613625 10.4318H2.45453V12.8864H0.613625C0.274437 12.8864 -3.24249e-05 13.1608 -3.24249e-05 13.5C-3.24249e-05 13.8392 0.274437 14.1136 0.613625 14.1136H2.45453V16.5682H0.613625ZM4.9091 5.52272C4.9091 5.18353 5.18356 4.90907 5.52275 4.90907H21.4773C21.8165 4.90907 22.0909 5.18353 22.0909 5.52272V21.4772C22.0909 21.8164 21.8165 22.0909 21.4773 22.0909H5.52275C5.18356 22.0909 4.9091 21.8164 4.9091 21.4772V5.52272Z" fill="white"/>
  <path d="M6.13614 20.8637H20.8634V6.13641H6.13614V20.8637Z" fill="white"/>
</svg>
