<svg width="21" height="21" viewBox="0 0 21 21" fill="none" xmlns="http://www.w3.org/2000/svg">
<path opacity="0.2" d="M20.2904 16.5486L16.821 13.0923C17.4518 11.8354 17.8723 10.3691 17.8723 8.90274C17.8723 3.98005 13.8773 0 8.93617 0C3.99499 0 0 3.98005 0 8.90274C0 13.8254 3.99499 17.8055 8.93617 17.8055C10.408 17.8055 11.8798 17.3865 13.1414 16.7581L16.6108 20.2145C17.6621 21.2618 19.239 21.2618 20.2904 20.2145C21.2365 19.1671 21.2365 17.596 20.2904 16.5486ZM8.93617 15.7107C5.15144 15.7107 2.10263 12.6733 2.10263 8.90274C2.10263 5.13217 5.15144 2.09476 8.93617 2.09476C12.7209 2.09476 15.7697 5.13217 15.7697 8.90274C15.7697 12.6733 12.7209 15.7107 8.93617 15.7107Z" fill="white"/>
</svg>
