<svg width="20" height="20" viewBox="0 0 27 27" fill="none" xmlns="http://www.w3.org/2000/svg">
  <linearGradient id="linear-gradient" gradientTransform="rotate(65)">
    <stop offset="0%" stop-color="#FDD226"/>
    <stop offset="100%" stop-color="#FF5753"/>
  </linearGradient>
  <path d="M0.540739 11.1679L3.7954 10.1003C3.92054 9.74268 4.0673 9.38888 4.23494 9.04278L2.72473 6.02316C2.57254 5.71883 2.63202 5.35112 2.87307 5.11012L5.11017 2.87302C5.35117 2.63203 5.71736 2.57254 6.02321 2.72468L9.04284 4.23489C9.38893 4.06724 9.74268 3.92048 10.1004 3.79535L11.1679 0.540686C11.2753 0.217846 11.5773 0 11.918 0H15.082C15.4227 0 15.7248 0.217846 15.8321 0.540738L16.8997 3.7954C17.2573 3.92054 17.6111 4.0673 17.9572 4.23494L20.9768 2.72473C21.282 2.57254 21.6481 2.6305 21.8899 2.87307L24.127 5.11012C24.368 5.35112 24.4275 5.71883 24.2753 6.02316L22.7651 9.04278C22.9328 9.38888 23.0795 9.74262 23.2047 10.1003L26.4593 11.1679C26.7822 11.2753 27 11.5773 27 11.918V15.082C27 15.4227 26.7822 15.7248 26.4593 15.8321L23.2046 16.8997C23.0795 17.2573 22.9327 17.6111 22.7651 17.9572L24.2753 20.9768C24.4275 21.2812 24.368 21.6489 24.1269 21.8899L21.8898 24.127C21.6473 24.3688 21.2796 24.4282 20.9768 24.2753L17.9572 22.7651C17.6111 22.9328 17.2573 23.0795 16.8996 23.2047L15.8321 26.4593C15.7248 26.7822 15.4227 27 15.082 27H11.918C11.5773 27 11.2753 26.7822 11.1679 26.4593L10.1003 23.2046C9.74268 23.0795 9.38888 22.9327 9.04279 22.7651L6.02316 24.2753C5.71957 24.4267 5.35191 24.3672 5.11012 24.1269L2.87302 21.8898C2.63202 21.6488 2.57254 21.2811 2.72468 20.9768L4.23489 17.9572C4.06724 17.6111 3.92048 17.2573 3.79535 16.8996L0.540686 15.8321C0.217846 15.7248 0 15.4227 0 15.082V11.918C0 11.5773 0.217846 11.2752 0.540739 11.1679ZM13.5 19.0371C16.5528 19.0371 19.0371 16.5528 19.0371 13.5C19.0371 10.4472 16.5528 7.96289 13.5 7.96289C10.4472 7.96289 7.96289 10.4472 7.96289 13.5C7.96289 16.5528 10.4472 19.0371 13.5 19.0371Z" fill="white"/>
  <path d="M13.5 11.127C14.8086 11.127 15.873 12.1914 15.873 13.5C15.873 14.8086 14.8086 15.873 13.5 15.873C12.1914 15.873 11.127 14.8086 11.127 13.5C11.127 12.1914 12.1914 11.127 13.5 11.127Z" fill="white"/>
</svg>
