<svg width="15" height="20" viewBox="0 0 15 20" fill="none" xmlns="http://www.w3.org/2000/svg">
<path d="M0 2.33333C0 1.78105 0.457891 1.33333 1.02273 1.33333H13.9773C14.5421 1.33333 15 1.78105 15 2.33333C15 2.88562 14.5421 3.33333 13.9773 3.33333H1.02273C0.457891 3.33333 0 2.88562 0 2.33333Z" fill="white"/>
<path fill-rule="evenodd" clip-rule="evenodd" d="M0.681818 6C0.681818 5.26362 1.29234 4.66667 2.04545 4.66667H12.9545C13.7077 4.66667 14.3182 5.26362 14.3182 6V18.6667C14.3182 19.403 13.7077 20 12.9545 20H2.04545C1.29234 20 0.681818 19.403 0.681818 18.6667V6ZM5.45455 16.6667C5.07799 16.6667 4.77273 16.3682 4.77273 16L4.77273 8.66667C4.77273 8.29848 5.07799 8 5.45455 8C5.8311 8 6.13636 8.29848 6.13636 8.66667V16C6.13636 16.3682 5.8311 16.6667 5.45455 16.6667ZM8.86364 16C8.86364 16.3682 9.1689 16.6667 9.54545 16.6667C9.92201 16.6667 10.2273 16.3682 10.2273 16V8.66667C10.2273 8.29848 9.92201 8 9.54545 8C9.1689 8 8.86364 8.29848 8.86364 8.66667V16Z" fill="white"/>
<path d="M5.45455 1C5.45455 0.447715 5.91244 0 6.47727 0H8.52273C9.08756 0 9.54545 0.447715 9.54545 1C9.54545 1.55228 9.08756 2 8.52273 2H6.47727C5.91244 2 5.45455 1.55228 5.45455 1Z" fill="white"/>
</svg>
