<svg width="24" height="20" viewBox="0 0 24 20" fill="none" xmlns="http://www.w3.org/2000/svg">
<path d="M23.3546 2.95156C22.5015 3.31719 21.6078 3.56094 20.6734 3.68281C21.6484 3.11406 22.3796 2.2 22.725 1.10313C21.8312 1.63125 20.8359 2.01719 19.7796 2.24062C18.9265 1.32656 17.7078 0.757812 16.3671 0.757812C13.7875 0.757812 11.7156 2.85 11.7156 5.40938C11.7156 5.775 11.7562 6.14062 11.8171 6.46562C7.93745 6.28281 4.52495 4.41406 2.20933 1.59063C1.80308 2.28125 1.57964 3.09375 1.57964 3.94688C1.57964 5.55156 2.41245 6.99375 3.65151 7.82656C2.89995 7.80625 2.1687 7.60313 1.53901 7.25781V7.31875C1.53901 9.57344 3.16401 11.4625 5.27651 11.8891C4.89058 11.9906 4.48433 12.0516 4.05776 12.0516C3.75308 12.0516 3.44839 12.0312 3.18433 11.9703C3.7937 13.8187 5.49995 15.1797 7.5312 15.2203C5.94683 16.4594 3.93589 17.2109 1.76245 17.2109C1.37651 17.2109 1.01089 17.1906 0.645264 17.15C2.71714 18.4906 5.15464 19.2422 7.79526 19.2422C16.3671 19.2422 21.0593 12.1328 21.0593 5.97813C21.0593 5.775 21.0593 5.57188 21.039 5.36875C21.9531 4.71875 22.725 3.90625 23.3546 2.95156Z" fill="white"/>
</svg>
