<svg width="36" height="35" viewBox="0 0 36 35" fill="none" xmlns="http://www.w3.org/2000/svg">
<path d="M17.4985 0C27.162 0 35.0022 7.83854 35.0022 17.5C35.0022 27.1615 27.162 35 17.4985 35C16.9734 35 16.4483 34.9781 15.9232 34.9271C15.4346 34.8833 14.9532 34.8177 14.4792 34.7302L14.2968 34.701C5.40644 33.0458 -0.756298 24.8865 0.0751266 15.8885C0.906548 6.89062 8.455 0 17.4985 0ZM18.9061 33.775H18.9499C19.4021 33.7313 19.8542 33.6729 20.2991 33.6C20.3283 33.5927 20.3502 33.5927 20.3721 33.5854C20.8097 33.5052 21.24 33.4104 21.6703 33.301L21.7724 33.2719C22.1881 33.1552 22.6038 33.024 23.0049 32.8781C23.0487 32.8635 23.0924 32.849 23.1289 32.8344C23.53 32.6885 23.9166 32.5208 24.3031 32.3458C24.3541 32.324 24.3979 32.3021 24.449 32.2802C24.8282 32.1052 25.2002 31.9083 25.5575 31.7042C25.6086 31.675 25.6596 31.6458 25.7107 31.6167C26.068 31.4052 26.4181 31.1865 26.7609 30.9458C26.8119 30.9094 26.863 30.8729 26.9141 30.8365C27.2495 30.5958 27.5777 30.3406 27.8986 30.0781L27.9862 29.9979V25.0833C27.9789 21.5396 25.1126 18.674 21.5681 18.6667H13.3998C9.85529 18.674 6.98907 21.5396 6.98177 25.0833V30.0052L7.062 30.0708C7.39019 30.3406 7.72568 30.6031 8.06846 30.8437C8.11222 30.8729 8.16327 30.9094 8.20703 30.9385C8.5571 31.1792 8.90718 31.4052 9.27183 31.6167C9.31559 31.6458 9.36665 31.6677 9.4104 31.6969C9.78236 31.9083 10.1543 32.1052 10.5336 32.2802C10.5773 32.3021 10.6211 32.3167 10.6648 32.3385C11.0514 32.5208 11.4452 32.6813 11.8463 32.8271C11.8828 32.8417 11.9266 32.8562 11.963 32.8708C12.3714 33.0167 12.7871 33.1479 13.2029 33.2646L13.305 33.2865C13.7353 33.4031 14.1656 33.4979 14.6032 33.5781C14.625 33.5854 14.6542 33.5854 14.6761 33.5927C15.121 33.6729 15.5731 33.7313 16.0253 33.775H16.0691C16.5358 33.8187 17.0026 33.8333 17.4767 33.8333C17.9507 33.8333 18.4394 33.8115 18.9061 33.775ZM5.82945 28.9187V25.0833C5.83674 20.8979 9.22807 17.5073 13.4144 17.5H21.5827C25.769 17.5073 29.1604 20.8979 29.1676 25.0833V28.9187C35.4544 22.5094 35.3814 12.2281 29.0145 5.89896C22.6402 -0.430208 12.3569 -0.430208 5.9899 5.89896C-0.384346 12.2281 -0.457279 22.5094 5.82945 28.9187Z" fill="white" fill-opacity="0.2"/>
<path d="M17.4985 4.66663C20.722 4.66663 23.333 7.27704 23.333 10.5C23.333 13.7229 20.722 16.3333 17.4985 16.3333C14.2749 16.3333 11.6639 13.7229 11.6639 10.5C11.6639 7.27704 14.2749 4.66663 17.4985 4.66663ZM17.4985 15.1666C20.073 15.1666 22.1661 13.0739 22.1661 10.5C22.1661 7.926 20.073 5.83329 17.4985 5.83329C14.924 5.83329 12.8308 7.926 12.8308 10.5C12.8308 13.0739 14.924 15.1666 17.4985 15.1666Z" fill="white" fill-opacity="0.2"/>
</svg>
