<svg width="16" height="14" viewBox="0 0 16 14" fill="none" xmlns="http://www.w3.org/2000/svg">
<path opacity="0.7" fill-rule="evenodd" clip-rule="evenodd" d="M2.28571 0C1.02335 0 0 1.1097 0 2.47858V9.26609C0 10.635 1.02335 11.7447 2.28571 11.7447H12.261C12.5234 11.7447 12.7779 11.8426 12.9816 12.022L15.0683 13.8601C15.4417 14.1891 16 13.9009 16 13.3792V2.47858C16 1.1097 14.9767 0 13.7143 0H2.28571ZM5.49456 5.33848C5.49456 4.99626 5.23872 4.71884 4.92313 4.71884C4.60754 4.71884 4.3517 4.99626 4.3517 5.33848C4.3517 7.27677 6.1107 8.62737 8.00005 8.62737C9.8894 8.62737 11.6484 7.27677 11.6484 5.33848C11.6484 4.99626 11.3926 4.71884 11.077 4.71884C10.7614 4.71884 10.5055 4.99626 10.5055 5.33848C10.5055 6.34856 9.50938 7.38808 8.00005 7.38808C6.49073 7.38808 5.49456 6.34856 5.49456 5.33848Z" fill="white"/>
</svg>
