<svg width="17" height="12" viewBox="0 0 17 12" fill="none" xmlns="http://www.w3.org/2000/svg">
<path d="M17 4.63236V9.03195C17 10.2989 15.973 11.326 14.706 11.326H2.294C1.02705 11.326 0 10.2989 0 9.03195V4.63236C0 4.41203 0.178633 4.2334 0.398956 4.2334H16.601C16.8214 4.2334 17 4.41203 17 4.63236ZM12.7555 7.42505H13.8194C14.205 7.42505 14.5176 7.11247 14.5176 6.72688C14.5176 6.34129 14.205 6.0287 13.8194 6.0287H12.7555C12.3699 6.0287 12.0574 6.34129 12.0574 6.72688C12.0574 7.11247 12.3699 7.42505 12.7555 7.42505Z" fill="white"/>
<path d="M0 2.43806V2.294C0 1.02705 1.02705 0 2.294 0H14.706C15.973 0 17 1.02705 17 2.294V2.43806C17 2.65838 16.8214 2.83701 16.601 2.83701H0.398956C0.178633 2.83701 0 2.65838 0 2.43806Z" fill="white"/>
</svg>
