<svg width="21" height="11" viewBox="0 0 21 11" fill="none" xmlns="http://www.w3.org/2000/svg">
<path d="M10.8604 4.20784C10.8604 3.60312 11.1606 3.07112 11.6173 2.74391C11.2075 2.53412 10.7504 2.40448 10.2593 2.40448C8.60206 2.40448 7.25366 3.75287 7.25366 5.41008C7.25366 7.0673 8.60206 8.41569 10.2593 8.41569C11.743 8.41569 12.971 7.33231 13.2137 5.91671C12.0032 6.30644 10.8604 5.39093 10.8604 4.20784Z" fill="white"/>
<path d="M20.3651 5.00914C20.1819 4.80484 15.7767 0 10.2592 0C4.74158 0 0.336407 4.80484 0.153226 5.00914C-0.0510752 5.23749 -0.0510752 5.58269 0.153226 5.81104C0.336407 6.01534 4.74166 10.8202 10.2592 10.8202C15.7766 10.8202 20.1819 6.01534 20.3651 5.81104C20.5693 5.58269 20.5693 5.23749 20.3651 5.00914ZM10.2592 9.61793C7.93918 9.61793 6.0513 7.73005 6.0513 5.41009C6.0513 3.09012 7.93918 1.20224 10.2592 1.20224C12.5791 1.20224 14.467 3.09012 14.467 5.41009C14.467 7.73005 12.5791 9.61793 10.2592 9.61793Z" fill="white"/>
</svg>
