<svg width="15" height="18" viewBox="0 0 15 18" fill="none" xmlns="http://www.w3.org/2000/svg">
<path fill-rule="evenodd" clip-rule="evenodd" d="M9.95018 0.189269C9.86551 0.104943 9.74944 0.0543213 9.62913 0.0543213H2.42623C1.09711 0.0543213 0 1.08767 0 2.34443V15.2249C0 16.4818 1.09711 17.5151 2.42623 17.5151H12.2024C13.5316 17.5151 14.6287 16.4818 14.6287 15.2249V4.99728C14.6287 4.88764 14.5751 4.78227 14.4993 4.70208L9.95018 0.189269ZM10.9848 11.7792H3.64375C3.3985 11.7792 3.19775 11.9689 3.19775 12.2009C3.19775 12.4329 3.3985 12.6227 3.64375 12.6227H10.9894C11.2346 12.6227 11.4354 12.4329 11.4354 12.2009C11.4354 11.9689 11.2346 11.7792 10.9848 11.7792ZM3.64375 8.08267H10.9848C11.2346 8.08267 11.4354 8.27237 11.4354 8.50444C11.4354 8.73637 11.2346 8.92621 10.9894 8.92621H3.64375C3.3985 8.92621 3.19775 8.73637 3.19775 8.50444C3.19775 8.27237 3.3985 8.08267 3.64375 8.08267Z" fill="white"/>
</svg>
