<svg width="14" height="14" viewBox="0 0 14 14" fill="none" xmlns="http://www.w3.org/2000/svg">
<path d="M7.02734 0C3.18254 0 0 3.12785 0 6.97266C0 10.8175 3.18254 14 7.02734 14C10.8721 14 14 10.8175 14 6.97266C14 3.12785 10.8721 0 7.02734 0ZM10.7188 7.79297H7.84766V10.7188C7.84766 11.171 7.47934 11.5391 7.02734 11.5391C6.57508 11.5391 6.20703 11.171 6.20703 10.7188V7.79297H3.28125C2.82898 7.79297 2.46094 7.42492 2.46094 6.97266C2.46094 6.52039 2.82898 6.15234 3.28125 6.15234H6.20703V3.28125C6.20703 2.82898 6.57508 2.46094 7.02734 2.46094C7.47934 2.46094 7.84766 2.82898 7.84766 3.28125V6.15234H10.7188C11.1707 6.15234 11.5391 6.52039 11.5391 6.97266C11.5391 7.42492 11.1707 7.79297 10.7188 7.79297Z" fill="white"/>
</svg>
