<svg width="16" height="16" viewBox="0 0 16 16" fill="none" xmlns="http://www.w3.org/2000/svg">
<path d="M0.320437 6.618L2.24912 5.98537C2.32328 5.77344 2.41025 5.56378 2.50959 5.35869L1.61466 3.56928C1.52447 3.38894 1.55972 3.17103 1.70256 3.02822L3.02825 1.70253C3.17106 1.55972 3.38806 1.52447 3.56931 1.61462L5.35872 2.50956C5.56381 2.41022 5.77344 2.32325 5.98541 2.24909L6.61803 0.320406C6.68166 0.129094 6.86063 0 7.0625 0H8.9375C9.13938 0 9.31838 0.129094 9.382 0.320437L10.0146 2.24913C10.2266 2.32328 10.4362 2.41025 10.6413 2.50959L12.4307 1.61466C12.6115 1.52447 12.8285 1.55881 12.9718 1.70256L14.2975 3.02822C14.4403 3.17103 14.4755 3.38894 14.3854 3.56928L13.4904 5.35869C13.5898 5.56378 13.6767 5.77341 13.7509 5.98537L15.6796 6.618C15.8709 6.68166 16 6.86062 16 7.0625V8.9375C16 9.13937 15.8709 9.31837 15.6796 9.382L13.7509 10.0146C13.6767 10.2266 13.5898 10.4362 13.4904 10.6413L14.3853 12.4307C14.4755 12.6111 14.4403 12.829 14.2974 12.9718L12.9718 14.2975C12.828 14.4408 12.6101 14.476 12.4307 14.3854L10.6413 13.4904C10.4362 13.5898 10.2266 13.6768 10.0146 13.7509L9.38197 15.6796C9.31838 15.8709 9.13938 16 8.9375 16H7.0625C6.86063 16 6.68166 15.8709 6.618 15.6796L5.98538 13.7509C5.77344 13.6767 5.56378 13.5897 5.35869 13.4904L3.56928 14.3853C3.38938 14.4751 3.1715 14.4398 3.02822 14.2974L1.70253 12.9718C1.55972 12.8289 1.52447 12.611 1.61462 12.4307L2.50956 10.6413C2.41022 10.4362 2.32325 10.2266 2.24909 10.0146L0.320406 9.38197C0.129093 9.31837 0 9.13937 0 8.9375V7.0625C0 6.86062 0.129094 6.68162 0.320437 6.618ZM8 11.2812C9.80909 11.2812 11.2812 9.80909 11.2812 8C11.2812 6.19091 9.80909 4.71875 8 4.71875C6.19091 4.71875 4.71875 6.19091 4.71875 8C4.71875 9.80909 6.19091 11.2812 8 11.2812Z" fill="white"/>
<path d="M8 6.59375C8.77544 6.59375 9.40625 7.22456 9.40625 8C9.40625 8.77544 8.77544 9.40625 8 9.40625C7.22456 9.40625 6.59375 8.77544 6.59375 8C6.59375 7.22456 7.22456 6.59375 8 6.59375Z" fill="white"/>
</svg>
