<svg width="12" height="15" viewBox="0 0 12 15" fill="none" xmlns="http://www.w3.org/2000/svg">
<path d="M5.89856 6.91604C6.8487 6.91604 7.67144 6.57527 8.34368 5.90292C9.01592 5.23068 9.35669 4.40816 9.35669 3.45791C9.35669 2.50799 9.01592 1.68536 8.34357 1.0129C7.67122 0.340774 6.84859 0 5.89856 0C4.94831 0 4.12579 0.340774 3.45355 1.01301C2.78131 1.68525 2.44043 2.50788 2.44043 3.45791C2.44043 4.40816 2.78131 5.23079 3.45366 5.90303C4.12601 6.57516 4.94864 6.91604 5.89856 6.91604Z" fill="white"/>
<path d="M11.9494 11.0401C11.9301 10.7604 11.8908 10.4552 11.8331 10.1329C11.7748 9.80827 11.6998 9.50134 11.61 9.22081C11.5172 8.93086 11.391 8.64453 11.235 8.37014C11.0731 8.08534 10.883 7.83734 10.6696 7.63327C10.4465 7.41978 10.1733 7.24813 9.85737 7.12293C9.54256 6.99838 9.19368 6.93529 8.82048 6.93529C8.67392 6.93529 8.53218 6.99543 8.25844 7.17365C8.08997 7.28351 7.89291 7.41058 7.67296 7.55112C7.48488 7.67095 7.23009 7.78323 6.91539 7.88488C6.60835 7.98423 6.2966 8.03462 5.98891 8.03462C5.68122 8.03462 5.36958 7.98423 5.06221 7.88488C4.74784 7.78334 4.49305 7.67106 4.30519 7.55123C4.08732 7.412 3.89015 7.28494 3.71916 7.17354C3.44575 6.99532 3.3039 6.93518 3.15734 6.93518C2.78403 6.93518 2.43526 6.99838 2.12056 7.12304C1.80487 7.24802 1.53157 7.41967 1.30822 7.63338C1.09495 7.83756 0.904679 8.08544 0.743 8.37014C0.587126 8.64453 0.460938 8.93075 0.368049 9.22092C0.278337 9.50145 0.203304 9.80827 0.145029 10.1329C0.0873022 10.4548 0.0480874 10.76 0.0286991 11.0405C0.00963939 11.3152 0 11.6003 0 11.8883C0 12.6378 0.238246 13.2445 0.708057 13.692C1.17206 14.1335 1.78603 14.3575 2.53264 14.3575H9.44584C10.1925 14.3575 10.8062 14.1336 11.2703 13.692C11.7402 13.2448 11.9785 12.638 11.9785 11.8882C11.9784 11.5989 11.9686 11.3135 11.9494 11.0401Z" fill="white"/>
</svg>
